<mxfile host="app.diagrams.net" agent="Mozilla/5.0 (Windows NT 10.0; Win64; x64) AppleWebKit/537.36 (KHTML, like Gecko) Chrome/138.0.0.0 Safari/537.36" version="28.0.3">
  <diagram name="EC2-Backup-Architecture" id="ec2-backup-flow">
    <mxGraphModel dx="1678" dy="954" grid="1" gridSize="10" guides="1" tooltips="1" connect="1" arrows="1" fold="1" page="1" pageScale="1" pageWidth="1654" pageHeight="1169" math="0" shadow="0">
      <root>
        <mxCell id="0" />
        <mxCell id="1" parent="0" />
        <mxCell id="title" value="🚀 EC2 Backup Automation Architecture" style="text;html=1;strokeColor=none;fillColor=none;align=center;verticalAlign=middle;whiteSpace=wrap;rounded=0;fontSize=24;fontStyle=1;fontColor=#FF6B35;" parent="1" vertex="1">
          <mxGeometry x="627" y="20" width="400" height="40" as="geometry" />
        </mxCell>
        <mxCell id="subtitle" value="Automated backup workflow using AWS native services" style="text;html=1;strokeColor=none;fillColor=none;align=center;verticalAlign=middle;whiteSpace=wrap;rounded=0;fontSize=14;fontColor=#666666;" parent="1" vertex="1">
          <mxGeometry x="627" y="80" width="400" height="20" as="geometry" />
        </mxCell>
        <mxCell id="aws-cloud" value="" style="sketch=0;outlineConnect=0;gradientColor=none;html=1;whiteSpace=wrap;fontSize=12;fontStyle=0;shape=mxgraph.aws4.group;grIcon=mxgraph.aws4.group_aws_cloud;strokeColor=#FF9900;fillColor=none;verticalAlign=top;align=left;spacingLeft=30;fontColor=#FF9900;dashed=0;strokeWidth=2;" parent="1" vertex="1">
          <mxGeometry x="80" y="110" width="1494" height="900" as="geometry" />
        </mxCell>
        <mxCell id="admin" value="👨‍💻 DevOps Engineer" style="sketch=0;outlineConnect=0;fontColor=#232F3E;gradientColor=none;strokeColor=#FF6B35;fillColor=#FF6B35;dashed=0;verticalLabelPosition=bottom;verticalAlign=top;align=center;html=1;fontSize=12;fontStyle=1;aspect=fixed;shape=mxgraph.aws4.resourceIcon;resIcon=mxgraph.aws4.user;" parent="1" vertex="1">
          <mxGeometry x="140" y="555" width="60" height="60" as="geometry" />
        </mxCell>
        <mxCell id="bash-script" value="📝 Bash Script&#xa;start-ec2-backup.sh" style="sketch=0;outlineConnect=0;fontColor=#232F3E;gradientColor=none;strokeColor=#4CAF50;fillColor=#E8F5E8;dashed=0;verticalLabelPosition=bottom;verticalAlign=top;align=center;html=1;fontSize=12;fontStyle=1;aspect=fixed;shape=mxgraph.aws4.resourceIcon;resIcon=mxgraph.aws4.script;" parent="1" vertex="1">
          <mxGeometry x="360" y="420" width="60" height="60" as="geometry" />
        </mxCell>
        <mxCell id="csv-file" value="📊 CSV File&#xa;ec2_instances.csv" style="sketch=0;outlineConnect=0;fontColor=#232F3E;gradientColor=none;strokeColor=#2196F3;fillColor=#E3F2FD;dashed=0;verticalLabelPosition=bottom;verticalAlign=top;align=center;html=1;fontSize=12;fontStyle=1;aspect=fixed;shape=mxgraph.aws4.resourceIcon;resIcon=mxgraph.aws4.document;" parent="1" vertex="1">
          <mxGeometry x="160" y="170" width="60" height="60" as="geometry" />
        </mxCell>
        <mxCell id="aws-cli" value="⚙️ AWS CLI&#xa;Authentication" style="sketch=0;outlineConnect=0;fontColor=#232F3E;gradientColor=none;strokeColor=#FF9900;fillColor=#FFF3E0;dashed=0;verticalLabelPosition=bottom;verticalAlign=top;align=center;html=1;fontSize=12;fontStyle=1;aspect=fixed;shape=mxgraph.aws4.resourceIcon;resIcon=mxgraph.aws4.cli;" parent="1" vertex="1">
          <mxGeometry x="600" y="420" width="60" height="60" as="geometry" />
        </mxCell>
        <mxCell id="ec2-instance1" value="🖥️ EC2 Instance 1&#xa;i-022bf7d6ddcf31ddc" style="sketch=0;outlineConnect=0;fontColor=#232F3E;gradientColor=none;strokeColor=#FF9900;fillColor=#FFF3E0;dashed=0;verticalLabelPosition=bottom;verticalAlign=top;align=center;html=1;fontSize=12;fontStyle=1;aspect=fixed;shape=mxgraph.aws4.resourceIcon;resIcon=mxgraph.aws4.ec2;" parent="1" vertex="1">
          <mxGeometry x="600" y="190" width="60" height="60" as="geometry" />
        </mxCell>
        <mxCell id="ec2-instance2" value="🖥️ EC2 Instance 2&#xa;i-0b19d4e150c8fca6e" style="sketch=0;outlineConnect=0;fontColor=#232F3E;gradientColor=none;strokeColor=#FF9900;fillColor=#FFF3E0;dashed=0;verticalLabelPosition=bottom;verticalAlign=top;align=center;html=1;fontSize=12;fontStyle=1;aspect=fixed;shape=mxgraph.aws4.resourceIcon;resIcon=mxgraph.aws4.ec2;" parent="1" vertex="1">
          <mxGeometry x="470" y="190" width="60" height="60" as="geometry" />
        </mxCell>
        <mxCell id="ebs-volumes" value="💾 EBS Volumes&#xa;All Attached Volumes" style="sketch=0;outlineConnect=0;fontColor=#232F3E;gradientColor=none;strokeColor=#FF9900;fillColor=#FFF3E0;dashed=0;verticalLabelPosition=bottom;verticalAlign=top;align=center;html=1;fontSize=12;fontStyle=1;aspect=fixed;shape=mxgraph.aws4.resourceIcon;resIcon=mxgraph.aws4.ebs;" parent="1" vertex="1">
          <mxGeometry x="767" y="330" width="60" height="60" as="geometry" />
        </mxCell>
        <mxCell id="aws-backup" value="🔄 AWS Backup Service" style="sketch=0;outlineConnect=0;fontColor=#232F3E;gradientColor=none;strokeColor=#FF9900;fillColor=#FFF3E0;dashed=0;verticalLabelPosition=bottom;verticalAlign=top;align=center;html=1;fontSize=12;fontStyle=1;aspect=fixed;shape=mxgraph.aws4.resourceIcon;resIcon=mxgraph.aws4.backup;" parent="1" vertex="1">
          <mxGeometry x="980" y="410" width="60" height="60" as="geometry" />
        </mxCell>
        <mxCell id="iam-role" value="🔐 IAM Role&#xa;AWSBackupDefaultServiceRole" style="sketch=0;outlineConnect=0;fontColor=#232F3E;gradientColor=none;strokeColor=#FF9900;fillColor=#FFF3E0;dashed=0;verticalLabelPosition=bottom;verticalAlign=top;align=center;html=1;fontSize=12;fontStyle=1;aspect=fixed;shape=mxgraph.aws4.resourceIcon;resIcon=mxgraph.aws4.iam_role;" parent="1" vertex="1">
          <mxGeometry x="980" y="600" width="60" height="60" as="geometry" />
        </mxCell>
        <mxCell id="backup-vault" value="🏦 Backup Vault&#xa;EC2-Backup" style="sketch=0;outlineConnect=0;fontColor=#232F3E;gradientColor=none;strokeColor=#FF9900;fillColor=#FFF3E0;dashed=0;verticalLabelPosition=bottom;verticalAlign=top;align=center;html=1;fontSize=12;fontStyle=1;aspect=fixed;shape=mxgraph.aws4.resourceIcon;resIcon=mxgraph.aws4.backup_vault;" parent="1" vertex="1">
          <mxGeometry x="1230" y="290" width="60" height="60" as="geometry" />
        </mxCell>
        <mxCell id="kms" value="🔒 KMS Encryption" style="sketch=0;outlineConnect=0;fontColor=#232F3E;gradientColor=none;strokeColor=#FF9900;fillColor=#FFF3E0;dashed=0;verticalLabelPosition=bottom;verticalAlign=top;align=center;html=1;fontSize=12;fontStyle=1;aspect=fixed;shape=mxgraph.aws4.resourceIcon;resIcon=mxgraph.aws4.kms;" parent="1" vertex="1">
          <mxGeometry x="1220" y="150" width="60" height="60" as="geometry" />
        </mxCell>
        <mxCell id="cloudwatch" value="📊 CloudWatch Logs&#xa;Backup Monitoring" style="sketch=0;outlineConnect=0;fontColor=#232F3E;gradientColor=none;strokeColor=#FF9900;fillColor=#FFF3E0;dashed=0;verticalLabelPosition=bottom;verticalAlign=top;align=center;html=1;fontSize=12;fontStyle=1;aspect=fixed;shape=mxgraph.aws4.resourceIcon;resIcon=mxgraph.aws4.cloudwatch;" parent="1" vertex="1">
          <mxGeometry x="1440" y="290" width="60" height="60" as="geometry" />
        </mxCell>
        <mxCell id="cloudtrail" value="🔍 CloudTrail&#xa;Audit Logging" style="sketch=0;outlineConnect=0;fontColor=#232F3E;gradientColor=none;strokeColor=#FF9900;fillColor=#FFF3E0;dashed=0;verticalLabelPosition=bottom;verticalAlign=top;align=center;html=1;fontSize=12;fontStyle=1;aspect=fixed;shape=mxgraph.aws4.resourceIcon;resIcon=mxgraph.aws4.cloudtrail;" parent="1" vertex="1">
          <mxGeometry x="1440" y="525" width="60" height="60" as="geometry" />
        </mxCell>
        <mxCell id="log-file" value="📋 Local Log File&#xa;backup_log_*.log" style="sketch=0;outlineConnect=0;fontColor=#232F3E;gradientColor=none;strokeColor=#4CAF50;fillColor=#E8F5E8;dashed=0;verticalLabelPosition=bottom;verticalAlign=top;align=center;html=1;fontSize=12;fontStyle=1;aspect=fixed;shape=mxgraph.aws4.resourceIcon;resIcon=mxgraph.aws4.document;" parent="1" vertex="1">
          <mxGeometry x="590" y="600" width="60" height="60" as="geometry" />
        </mxCell>
        <mxCell id="recovery-points" value="⏰ Recovery Points&#xa;Point-in-Time Backups" style="sketch=0;outlineConnect=0;fontColor=#232F3E;gradientColor=none;strokeColor=#9C27B0;fillColor=#F3E5F5;dashed=0;verticalLabelPosition=bottom;verticalAlign=top;align=center;html=1;fontSize=12;fontStyle=1;aspect=fixed;shape=mxgraph.aws4.resourceIcon;resIcon=mxgraph.aws4.backup_recovery_point;" parent="1" vertex="1">
          <mxGeometry x="1230" y="490" width="60" height="60" as="geometry" />
        </mxCell>
        <mxCell id="flow1" value="1️⃣ Execute Script" style="endArrow=classic;html=1;rounded=0;strokeColor=#FF6B35;strokeWidth=3;fontColor=#FF6B35;fontStyle=1;fontSize=12;flowAnimation=1;edgeStyle=orthogonalEdgeStyle;" parent="1" source="admin" target="bash-script" edge="1">
          <mxGeometry width="50" height="50" relative="1" as="geometry">
            <mxPoint x="200" y="230" as="sourcePoint" />
            <mxPoint x="250" y="180" as="targetPoint" />
            <Array as="points">
              <mxPoint x="170" y="460" />
            </Array>
          </mxGeometry>
        </mxCell>
        <mxCell id="flow2" value="2️⃣ Read Instance IDs" style="endArrow=classic;html=1;rounded=0;strokeColor=#2196F3;strokeWidth=3;fontColor=#2196F3;fontStyle=1;fontSize=12;flowAnimation=1;edgeStyle=orthogonalEdgeStyle;elbow=vertical;curved=1;" parent="1" source="bash-script" target="csv-file" edge="1">
          <mxGeometry x="0.3333" y="20" width="50" height="50" relative="1" as="geometry">
            <mxPoint x="370" y="260" as="sourcePoint" />
            <mxPoint x="370" y="320" as="targetPoint" />
            <mxPoint as="offset" />
          </mxGeometry>
        </mxCell>
        <mxCell id="flow3" value="3️⃣ AWS Authentication" style="endArrow=classic;html=1;rounded=0;strokeColor=#FF9900;strokeWidth=3;fontColor=#FF9900;fontStyle=1;fontSize=12;flowAnimation=1;" parent="1" source="bash-script" target="aws-cli" edge="1">
          <mxGeometry width="50" height="50" relative="1" as="geometry">
            <mxPoint x="400" y="230" as="sourcePoint" />
            <mxPoint x="540" y="230" as="targetPoint" />
          </mxGeometry>
        </mxCell>
        <mxCell id="flow4" value="4️⃣ Validate Instances" style="endArrow=classic;html=1;rounded=0;strokeColor=#4CAF50;strokeWidth=3;fontColor=#4CAF50;fontStyle=1;fontSize=12;flowAnimation=1;" parent="1" source="aws-cli" target="ec2-instance1" edge="1">
          <mxGeometry width="50" height="50" relative="1" as="geometry">
            <mxPoint x="600" y="230" as="sourcePoint" />
            <mxPoint x="740" y="190" as="targetPoint" />
          </mxGeometry>
        </mxCell>
        <mxCell id="flow5" value="5️⃣ Include All Volumes" style="endArrow=classic;html=1;rounded=0;strokeColor=#FF5722;strokeWidth=3;fontColor=#FF5722;fontStyle=1;fontSize=12;flowAnimation=1;edgeStyle=orthogonalEdgeStyle;" parent="1" source="ec2-instance1" target="ebs-volumes" edge="1">
          <mxGeometry width="50" height="50" relative="1" as="geometry">
            <mxPoint x="800" y="190" as="sourcePoint" />
            <mxPoint x="840" y="230" as="targetPoint" />
          </mxGeometry>
        </mxCell>
        <mxCell id="flow6" value="6️⃣ Start Backup Job" style="endArrow=classic;html=1;rounded=0;strokeColor=#9C27B0;strokeWidth=3;fontColor=#9C27B0;fontStyle=1;fontSize=12;flowAnimation=1;edgeStyle=orthogonalEdgeStyle;elbow=vertical;" parent="1" source="ebs-volumes" target="aws-backup" edge="1">
          <mxGeometry width="50" height="50" relative="1" as="geometry">
            <mxPoint x="900" y="230" as="sourcePoint" />
            <mxPoint x="1040" y="230" as="targetPoint" />
            <Array as="points">
              <mxPoint x="797" y="450" />
            </Array>
          </mxGeometry>
        </mxCell>
        <mxCell id="flow7" value="7️⃣ Assume Role" style="endArrow=classic;html=1;rounded=0;strokeColor=#795548;strokeWidth=3;fontColor=#795548;fontStyle=1;fontSize=12;flowAnimation=1;" parent="1" source="aws-backup" target="iam-role" edge="1">
          <mxGeometry width="50" height="50" relative="1" as="geometry">
            <mxPoint x="1070" y="260" as="sourcePoint" />
            <mxPoint x="1070" y="320" as="targetPoint" />
          </mxGeometry>
        </mxCell>
        <mxCell id="flow8" value="8️⃣ Store Backup" style="endArrow=classic;html=1;rounded=0;strokeColor=#607D8B;strokeWidth=3;fontColor=#607D8B;fontStyle=1;fontSize=12;flowAnimation=1;edgeStyle=elbowEdgeStyle;elbow=vertical;" parent="1" source="aws-backup" target="backup-vault" edge="1">
          <mxGeometry width="50" height="50" relative="1" as="geometry">
            <mxPoint x="1100" y="230" as="sourcePoint" />
            <mxPoint x="1240" y="230" as="targetPoint" />
            <Array as="points">
              <mxPoint x="1120" y="320" />
            </Array>
          </mxGeometry>
        </mxCell>
        <mxCell id="flow9" value="9️⃣ Encrypt Data" style="endArrow=classic;html=1;rounded=0;strokeColor=#E91E63;strokeWidth=3;fontColor=#E91E63;fontStyle=1;fontSize=12;flowAnimation=1;" parent="1" source="backup-vault" target="kms" edge="1">
          <mxGeometry width="50" height="50" relative="1" as="geometry">
            <mxPoint x="1270" y="260" as="sourcePoint" />
            <mxPoint x="1270" y="320" as="targetPoint" />
          </mxGeometry>
        </mxCell>
        <mxCell id="flow10" value="🔟 Monitor Progress" style="endArrow=classic;html=1;rounded=0;strokeColor=#FF9800;strokeWidth=3;fontColor=#FF9800;fontStyle=1;fontSize=12;flowAnimation=1;" parent="1" source="backup-vault" target="cloudwatch" edge="1">
          <mxGeometry width="50" height="50" relative="1" as="geometry">
            <mxPoint x="1300" y="230" as="sourcePoint" />
            <mxPoint x="1440" y="230" as="targetPoint" />
          </mxGeometry>
        </mxCell>
        <mxCell id="flow11" value="1️⃣1️⃣ Audit Trail" style="endArrow=classic;html=1;rounded=0;strokeColor=#3F51B5;strokeWidth=3;fontColor=#3F51B5;fontStyle=1;fontSize=12;flowAnimation=1;" parent="1" source="cloudwatch" target="cloudtrail" edge="1">
          <mxGeometry width="50" height="50" relative="1" as="geometry">
            <mxPoint x="1470" y="260" as="sourcePoint" />
            <mxPoint x="1470" y="320" as="targetPoint" />
          </mxGeometry>
        </mxCell>
        <mxCell id="flow12" value="1️⃣2️⃣ Create Recovery Points" style="endArrow=classic;html=1;rounded=0;strokeColor=#8BC34A;strokeWidth=3;fontColor=#8BC34A;fontStyle=1;fontSize=12;flowAnimation=1;" parent="1" source="backup-vault" target="recovery-points" edge="1">
          <mxGeometry width="50" height="50" relative="1" as="geometry">
            <mxPoint x="1270" y="260" as="sourcePoint" />
            <mxPoint x="1270" y="440" as="targetPoint" />
          </mxGeometry>
        </mxCell>
        <mxCell id="flow13" value="1️⃣3️⃣ Local Logging" style="endArrow=classic;html=1;rounded=0;strokeColor=#FFC107;strokeWidth=3;fontColor=#FFC107;fontStyle=1;fontSize=12;flowAnimation=1;edgeStyle=orthogonalEdgeStyle;curved=1;" parent="1" source="bash-script" target="log-file" edge="1">
          <mxGeometry width="50" height="50" relative="1" as="geometry">
            <mxPoint x="370" y="260" as="sourcePoint" />
            <mxPoint x="370" y="440" as="targetPoint" />
            <Array as="points">
              <mxPoint x="480" y="450" />
              <mxPoint x="480" y="630" />
            </Array>
          </mxGeometry>
        </mxCell>
        <mxCell id="footer" value="🔧 Professional AWS EC2 Backup Solution | 🚀 Production-Ready Architecture" style="text;html=1;strokeColor=none;fillColor=none;align=center;verticalAlign=middle;whiteSpace=wrap;rounded=0;fontSize=14;fontStyle=1;fontColor=#666666;" parent="1" vertex="1">
          <mxGeometry x="710" y="970" width="400" height="20" as="geometry" />
        </mxCell>
        <mxCell id="lHinLzbyWHZxh0926QMd-1" value="" style="group" vertex="1" connectable="0" parent="1">
          <mxGeometry x="120" y="770" width="610" height="190" as="geometry" />
        </mxCell>
        <mxCell id="legend-title" value="🎯 Workflow Legend" style="text;html=1;strokeColor=none;fillColor=none;align=left;verticalAlign=middle;whiteSpace=wrap;rounded=0;fontSize=16;fontStyle=1;fontColor=#333333;" parent="lHinLzbyWHZxh0926QMd-1" vertex="1">
          <mxGeometry width="200" height="30" as="geometry" />
        </mxCell>
        <mxCell id="legend1" value="1️⃣ DevOps Engineer executes backup script" style="text;html=1;strokeColor=none;fillColor=none;align=left;verticalAlign=middle;whiteSpace=wrap;rounded=0;fontSize=12;fontColor=#333333;" parent="lHinLzbyWHZxh0926QMd-1" vertex="1">
          <mxGeometry y="40" width="300" height="20" as="geometry" />
        </mxCell>
        <mxCell id="legend2" value="2️⃣ Script reads EC2 instance IDs from CSV file" style="text;html=1;strokeColor=none;fillColor=none;align=left;verticalAlign=middle;whiteSpace=wrap;rounded=0;fontSize=12;fontColor=#333333;" parent="lHinLzbyWHZxh0926QMd-1" vertex="1">
          <mxGeometry y="60" width="300" height="20" as="geometry" />
        </mxCell>
        <mxCell id="legend3" value="3️⃣ AWS CLI authenticates with AWS services" style="text;html=1;strokeColor=none;fillColor=none;align=left;verticalAlign=middle;whiteSpace=wrap;rounded=0;fontSize=12;fontColor=#333333;" parent="lHinLzbyWHZxh0926QMd-1" vertex="1">
          <mxGeometry y="80" width="300" height="20" as="geometry" />
        </mxCell>
        <mxCell id="legend4" value="4️⃣ Script validates EC2 instances existence and state" style="text;html=1;strokeColor=none;fillColor=none;align=left;verticalAlign=middle;whiteSpace=wrap;rounded=0;fontSize=12;fontColor=#333333;" parent="lHinLzbyWHZxh0926QMd-1" vertex="1">
          <mxGeometry y="100" width="300" height="20" as="geometry" />
        </mxCell>
        <mxCell id="legend5" value="5️⃣ All attached EBS volumes are included automatically" style="text;html=1;strokeColor=none;fillColor=none;align=left;verticalAlign=middle;whiteSpace=wrap;rounded=0;fontSize=12;fontColor=#333333;" parent="lHinLzbyWHZxh0926QMd-1" vertex="1">
          <mxGeometry y="120" width="300" height="20" as="geometry" />
        </mxCell>
        <mxCell id="legend6" value="6️⃣ AWS Backup service initiates backup job" style="text;html=1;strokeColor=none;fillColor=none;align=left;verticalAlign=middle;whiteSpace=wrap;rounded=0;fontSize=12;fontColor=#333333;" parent="lHinLzbyWHZxh0926QMd-1" vertex="1">
          <mxGeometry y="140" width="300" height="20" as="geometry" />
        </mxCell>
        <mxCell id="legend7" value="7️⃣ Service assumes IAM role for permissions" style="text;html=1;strokeColor=none;fillColor=none;align=left;verticalAlign=middle;whiteSpace=wrap;rounded=0;fontSize=12;fontColor=#333333;" parent="lHinLzbyWHZxh0926QMd-1" vertex="1">
          <mxGeometry x="310" y="40" width="300" height="20" as="geometry" />
        </mxCell>
        <mxCell id="legend8" value="8️⃣ Backup data is stored in secure backup vault" style="text;html=1;strokeColor=none;fillColor=none;align=left;verticalAlign=middle;whiteSpace=wrap;rounded=0;fontSize=12;fontColor=#333333;" parent="lHinLzbyWHZxh0926QMd-1" vertex="1">
          <mxGeometry x="310" y="60" width="300" height="20" as="geometry" />
        </mxCell>
        <mxCell id="legend9" value="9️⃣ Data is encrypted using AWS KMS" style="text;html=1;strokeColor=none;fillColor=none;align=left;verticalAlign=middle;whiteSpace=wrap;rounded=0;fontSize=12;fontColor=#333333;" parent="lHinLzbyWHZxh0926QMd-1" vertex="1">
          <mxGeometry x="310" y="80" width="300" height="20" as="geometry" />
        </mxCell>
        <mxCell id="legend10" value="🔟 CloudWatch monitors backup progress" style="text;html=1;strokeColor=none;fillColor=none;align=left;verticalAlign=middle;whiteSpace=wrap;rounded=0;fontSize=12;fontColor=#333333;" parent="lHinLzbyWHZxh0926QMd-1" vertex="1">
          <mxGeometry x="310" y="100" width="300" height="20" as="geometry" />
        </mxCell>
        <mxCell id="legend11" value="1️⃣1️⃣ CloudTrail logs all API calls for audit" style="text;html=1;strokeColor=none;fillColor=none;align=left;verticalAlign=middle;whiteSpace=wrap;rounded=0;fontSize=12;fontColor=#333333;" parent="lHinLzbyWHZxh0926QMd-1" vertex="1">
          <mxGeometry x="310" y="120" width="300" height="20" as="geometry" />
        </mxCell>
        <mxCell id="legend12" value="1️⃣2️⃣ Recovery points are created for point-in-time restore" style="text;html=1;strokeColor=none;fillColor=none;align=left;verticalAlign=middle;whiteSpace=wrap;rounded=0;fontSize=12;fontColor=#333333;" parent="lHinLzbyWHZxh0926QMd-1" vertex="1">
          <mxGeometry x="310" y="140" width="300" height="20" as="geometry" />
        </mxCell>
        <mxCell id="legend13" value="1️⃣3️⃣ Local log file captures detailed execution logs" style="text;html=1;strokeColor=none;fillColor=none;align=left;verticalAlign=middle;whiteSpace=wrap;rounded=0;fontSize=12;fontColor=#333333;" parent="lHinLzbyWHZxh0926QMd-1" vertex="1">
          <mxGeometry x="300" y="170" width="300" height="20" as="geometry" />
        </mxCell>
        <mxCell id="lHinLzbyWHZxh0926QMd-2" value="" style="group" vertex="1" connectable="0" parent="1">
          <mxGeometry x="1140" y="800" width="350" height="160" as="geometry" />
        </mxCell>
        <mxCell id="benefits-title" value="✨ Key Benefits" style="text;html=1;strokeColor=none;fillColor=none;align=left;verticalAlign=middle;whiteSpace=wrap;rounded=0;fontSize=16;fontStyle=1;fontColor=#333333;" parent="lHinLzbyWHZxh0926QMd-2" vertex="1">
          <mxGeometry width="200" height="30" as="geometry" />
        </mxCell>
        <mxCell id="benefit1" value="🔄 Automated batch processing of multiple EC2 instances" style="text;html=1;strokeColor=none;fillColor=none;align=left;verticalAlign=middle;whiteSpace=wrap;rounded=0;fontSize=12;fontColor=#333333;" parent="lHinLzbyWHZxh0926QMd-2" vertex="1">
          <mxGeometry y="40" width="350" height="20" as="geometry" />
        </mxCell>
        <mxCell id="benefit2" value="💾 Complete backup including all attached EBS volumes" style="text;html=1;strokeColor=none;fillColor=none;align=left;verticalAlign=middle;whiteSpace=wrap;rounded=0;fontSize=12;fontColor=#333333;" parent="lHinLzbyWHZxh0926QMd-2" vertex="1">
          <mxGeometry y="60" width="350" height="20" as="geometry" />
        </mxCell>
        <mxCell id="benefit3" value="🛡️ Enterprise-grade security with encryption at rest" style="text;html=1;strokeColor=none;fillColor=none;align=left;verticalAlign=middle;whiteSpace=wrap;rounded=0;fontSize=12;fontColor=#333333;" parent="lHinLzbyWHZxh0926QMd-2" vertex="1">
          <mxGeometry y="80" width="350" height="20" as="geometry" />
        </mxCell>
        <mxCell id="benefit4" value="📊 Comprehensive logging and monitoring capabilities" style="text;html=1;strokeColor=none;fillColor=none;align=left;verticalAlign=middle;whiteSpace=wrap;rounded=0;fontSize=12;fontColor=#333333;" parent="lHinLzbyWHZxh0926QMd-2" vertex="1">
          <mxGeometry y="100" width="350" height="20" as="geometry" />
        </mxCell>
        <mxCell id="benefit5" value="⏰ Point-in-time recovery with granular restore options" style="text;html=1;strokeColor=none;fillColor=none;align=left;verticalAlign=middle;whiteSpace=wrap;rounded=0;fontSize=12;fontColor=#333333;" parent="lHinLzbyWHZxh0926QMd-2" vertex="1">
          <mxGeometry y="120" width="350" height="20" as="geometry" />
        </mxCell>
        <mxCell id="benefit6" value="🏷️ Intelligent tagging for backup identification and management" style="text;html=1;strokeColor=none;fillColor=none;align=left;verticalAlign=middle;whiteSpace=wrap;rounded=0;fontSize=12;fontColor=#333333;" parent="lHinLzbyWHZxh0926QMd-2" vertex="1">
          <mxGeometry y="140" width="350" height="20" as="geometry" />
        </mxCell>
      </root>
    </mxGraphModel>
  </diagram>
</mxfile>
